<?xml version="1.0" encoding="UTF-8"?>
<svg xmlns="http://www.w3.org/2000/svg" viewBox="0 0 512 512" width="512" height="512">
  <defs>
    <linearGradient id="grad1" x1="0%" y1="0%" x2="100%" y2="100%">
      <stop offset="0%" style="stop-color:#4A6FFF;stop-opacity:1" />
      <stop offset="100%" style="stop-color:#2EC5FF;stop-opacity:1" />
    </linearGradient>
    <linearGradient id="grad2" x1="0%" y1="0%" x2="100%" y2="100%">
      <stop offset="0%" style="stop-color:#FF6E50;stop-opacity:1" />
      <stop offset="100%" style="stop-color:#FF9F5E;stop-opacity:1" />
    </linearGradient>
    <filter id="shadow" x="-20%" y="-20%" width="140%" height="140%">
      <feDropShadow dx="3" dy="3" stdDeviation="5" flood-color="#000000" flood-opacity="0.2"/>
    </filter>
  </defs>
  
  <!-- Bottom Box -->
  <rect x="116" y="286" width="280" height="90" rx="12" ry="12" fill="url(#grad1)" filter="url(#shadow)"/>
  
  <!-- Middle Box -->
  <rect x="136" y="216" width="240" height="90" rx="12" ry="12" fill="#2C3E50" filter="url(#shadow)"/>
  
  <!-- Top Box -->
  <rect x="156" y="146" width="200" height="90" rx="12" ry="12" fill="url(#grad2)" filter="url(#shadow)"/>
  
  <!-- Barcode Lines on Middle Box -->
  <g fill="white" opacity="0.8">
    <rect x="156" y="236" width="4" height="50" rx="2" ry="2"/>
    <rect x="166" y="236" width="2" height="50" rx="1" ry="1"/>
    <rect x="174" y="236" width="6" height="50" rx="2" ry="2"/>
    <rect x="186" y="236" width="3" height="50" rx="1.5" ry="1.5"/>
    <rect x="195" y="236" width="1" height="50" rx="0.5" ry="0.5"/>
    <rect x="202" y="236" width="4" height="50" rx="2" ry="2"/>
    <rect x="212" y="236" width="8" height="50" rx="2" ry="2"/>
    <rect x="226" y="236" width="2" height="50" rx="1" ry="1"/>
    <rect x="234" y="236" width="5" height="50" rx="2.5" ry="2.5"/>
    <rect x="245" y="236" width="3" height="50" rx="1.5" ry="1.5"/>
    <rect x="254" y="236" width="6" height="50" rx="3" ry="3"/>
    <rect x="266" y="236" width="2" height="50" rx="1" ry="1"/>
    <rect x="274" y="236" width="4" height="50" rx="2" ry="2"/>
    <rect x="284" y="236" width="1" height="50" rx="0.5" ry="0.5"/>
    <rect x="291" y="236" width="3" height="50" rx="1.5" ry="1.5"/>
    <rect x="300" y="236" width="5" height="50" rx="2.5" ry="2.5"/>
    <rect x="311" y="236" width="4" height="50" rx="2" ry="2"/>
    <rect x="321" y="236" width="2" height="50" rx="1" ry="1"/>
    <rect x="329" y="236" width="7" height="50" rx="3.5" ry="3.5"/>
    <rect x="342" y="236" width="3" height="50" rx="1.5" ry="1.5"/>
    <rect x="351" y="236" width="5" height="50" rx="2.5" ry="2.5"/>
  </g>
  
  <!-- Tag Icon on Top Box -->
  <g transform="translate(256, 191) scale(0.8)">
    <path d="M-30,-30 L30,-30 L30,10 L0,30 L-30,10 Z" fill="white" opacity="0.9"/>
    <circle cx="10" cy="-15" r="8" fill="#FF6E50"/>
  </g>
  
  <!-- Magnifying Glass on Bottom Box -->
  <g transform="translate(256, 331)">
    <circle cx="0" cy="0" r="22" fill="none" stroke="white" stroke-width="8" opacity="0.9"/>
    <line x1="15" y1="15" x2="35" y2="35" stroke="white" stroke-width="8" stroke-linecap="round" opacity="0.9"/>
  </g>
</svg>